<?xml version="1.0" encoding="UTF-8"?>
<svg xmlns="http://www.w3.org/2000/svg" viewBox="0 0 1095 1095" width="1095" height="1095">
<path d="M190.61 653C190.61 638.33 190.61 623.67 190.61 609C189.09 567.45 232.98 543.85 260.42 519.94C323.83 464.66 388.18 410.19 452.81 356.35C483.57 330.73 510.25 299.56 553.5 301.19C557.88 293.54 559.62 283.91 563.34 275.8C575.18 249.98 594.99 224.06 622.67 214.23C650.33 204.42 674.38 216.76 698.68 228.82C725.26 242.01 752.11 254.68 778.77 267.71C794.43 275.36 814.85 281.75 827.54 293.96C839.35 305.31 839.97 319.05 844.84 333.5C858.72 342.99 892.45 350.38 902.6 359.91C907 364.04 904.83 372.36 903.96 377.5C901.09 394.61 892.71 413.72 876.47 422C858.67 431.08 841.23 421.51 825.13 413.45C803.07 402.42 780.96 391.48 758.79 380.67C747.87 375.34 736.95 368.46 725.5 364.43C723.46 370.45 721.43 376.48 719.39 382.5C741.39 399.73 777.29 404.81 793.44 429.08C805.59 447.35 806.76 474.31 808.41 495.5C811 528.75 810.91 562.52 795.34 592.8C778.83 624.92 749.48 641.84 720.06 660.58C679.65 686.31 639.86 713.03 599.67 739.1C581.47 750.9 563.37 762.85 545.16 774.64C536.23 780.43 527.38 787.76 517.73 792.27C511.01 795.42 502.91 790.85 497.28 793.74C470.2 807.61 452.98 830.75 419.5 828.46C397.5 826.95 379.9 814.79 361.22 804.31C326.47 784.81 292.08 764.68 257.35 745.15C240.9 735.91 212.44 724.02 201.05 709.36C189.5 694.5 189.24 670.92 190.61 653ZM782.81 284.5C772.22 275.78 755.26 270.5 742.79 264.67C715.4 251.84 666.73 220.22 637.48 224.06C588.16 230.55 558.81 304.37 559.01 347.5C605.51 372.62 652 397.74 698.5 422.86C700.48 411.39 701.13 399.77 703.87 388.31C713.87 346.43 738.57 297.86 782.81 284.5ZM832.5 402.72C833.63 393.85 830.85 383.67 831.12 374.5C831.78 351.78 836.88 324.01 820.39 305.14C814.92 298.89 806.59 295.98 798.5 295.95C767.61 295.8 742.8 325.63 730.94 351.5C764.8 368.57 798.65 385.65 832.5 402.72ZM464.24 364.05C463.73 364.34 463.21 364.63 462.7 364.92C461.08 366.31 459.45 367.69 457.82 369.07C455.91 370.71 454 372.35 452.08 373.98C443.4 381.37 434.72 388.76 426.04 396.15C425.72 396.42 425.4 396.69 425.08 396.96C402.66 416 380.23 435.03 357.81 454.07C356.59 455.12 355.37 456.16 354.15 457.21C326.07 481.13 298 505.05 269.93 528.96C269.05 529.66 268.16 530.35 267.27 531.04C255.17 541.37 243.07 551.7 230.96 562.03C230.66 562.41 230.35 562.8 230.04 563.18C217.12 567.83 198.57 591.24 210.22 604.28C219.8 614.99 244.38 624.73 257.44 632.02C293.39 652.09 329.33 672.18 365.32 692.19C383.17 702.11 400.69 714.99 422.15 710.56C437.12 707.46 447.4 697.59 458.66 688.11C476.54 673.04 493.94 657.39 511.64 642.09C569.37 592.21 626.46 541.58 684.39 491.92C709.22 470.64 738.43 437.04 768.98 425.5C751.49 415.65 733.99 405.8 716.5 395.95C715.17 402.56 713.83 409.17 712.5 415.78C715.71 418.91 723.13 420.23 724.74 424.73C727.6 432.74 713.09 443.46 705.92 441.53C691.6 437.68 672.28 423.99 658.88 416.61C629.35 400.34 599.34 384.94 569.82 368.66C560.41 363.47 528.74 350.95 529.07 340.5C534.46 334.17 539.61 331.95 547.52 331.5C548.55 325.83 549.58 320.17 550.61 314.5C523.38 309.2 500.45 332.05 481.91 348.42C476.71 353 467.36 358.07 464.24 364.05ZM846.5 348.98C844.16 353.74 845.32 360.18 844.94 365.5C844.04 378.28 839.96 404.54 854.78 411.68C877.31 422.53 891.04 385.08 892.01 369.5C876.84 362.66 861.67 355.82 846.5 348.98ZM500.7 361.34C513.24 359.12 530.33 373.7 541.04 379.45C575.84 398.16 610.29 417.57 644.93 436.56C653.28 441.14 688.44 455.41 680.69 467.23C676.44 473.7 667.51 479.06 661.64 484.11C645.71 497.82 629.54 511.35 613.99 525.48C607.38 531.49 598.17 542.82 588.5 541.95C577.7 540.97 564.78 530.26 555.42 525.04C531.24 511.56 507.05 498.1 482.88 484.62C464.9 474.59 446.9 464.59 428.92 454.56C423.99 451.81 412.9 448.28 411.21 442.3C408.69 433.37 422.64 424.94 428.64 420.08C445.13 406.71 461.4 392.86 477.43 378.94C483.65 373.54 492.35 362.81 500.7 361.34ZM503.5 374.19C478.38 395.63 453.27 417.06 428.15 438.5C481.94 468.6 535.72 498.71 589.5 528.81C614.87 507.04 640.23 485.27 665.6 463.5C611.56 433.73 557.53 403.96 503.5 374.19ZM212.09 622.01C209.23 619.69 206.36 617.38 203.5 615.06C200.86 632.93 203.24 652.5 203.96 670.5C204.45 682.91 204.65 696.5 214.98 705.18C215.88 705.8 216.78 706.42 217.68 707.04C226.34 715.7 252.52 727.49 264.35 734.12C297.81 752.89 330.86 772.4 364.4 791.06C383.49 801.68 401.62 815.8 424.5 815.22C447.72 814.64 464.41 800.81 482.94 788.46C486.78 785.89 491.18 781.45 495.66 780.14C500.12 778.84 504.49 781.23 508.96 780.5C509.05 776.67 509.14 772.83 509.23 769C510.17 750.4 505.83 729.05 514.25 711.73C524.33 690.99 552.32 672.37 569.9 657.43C600.69 631.27 630.67 604.17 661.36 577.89C676.48 564.94 691.27 548.1 708.8 538.5C702.19 532.48 693.36 538.72 687.7 543.17C671.31 556.06 655.49 570.54 640.02 584.52C609.75 611.86 578.84 638.97 547.36 664.9C532.69 676.99 512.92 689.75 505.21 707.7C497.41 725.86 501.95 746.83 500.6 766C498.16 769.58 492.9 768.72 489.18 767.5C486.19 761.87 487.91 752.83 487.92 746.5C487.95 727.59 487.27 710.63 497.56 694.04C508.05 677.13 527.51 664.76 542.38 651.92C574.21 624.45 605.58 596.33 637.83 569.37C652.52 557.09 681.67 524.05 700.5 523.13C713.34 522.5 731.64 534.36 738.41 545.12C742.81 552.11 745.08 560.81 750.5 567.06C761.98 564.96 786.97 542.52 796.5 534.16C799.56 511.27 795.45 484.97 791.22 462.44C789.54 453.53 788.22 442.72 781.5 435.99C769.26 436.61 759.16 445.3 749.89 452.44C729.36 468.26 710.63 486.61 690.8 503.31C629.58 554.89 570.35 608.93 509.64 661.12C487.8 679.88 451.45 719.19 423.47 723.88C395.98 728.49 374.59 712.33 351.86 699.62C319.8 681.69 287.86 663.49 255.58 645.97C241.46 638.31 227.25 627.29 212.09 622.01ZM392.47 458.51C399.32 458.71 434.45 477.57 436.88 483.64C440.27 492.08 421.46 508.11 413.98 510.47C401.91 514.28 386.43 500.65 376.35 495.12C372.34 492.92 366.2 490.75 364.15 486.31C359.46 476.15 383.46 458.25 392.47 458.51ZM429.01 487.5C426.51 483.56 394.96 466.29 390.52 467C385.48 467.81 374.58 478.29 372.05 482.5C376.55 486.67 406.12 503.95 411.01 502.62C417 500.99 424.72 491.89 429.01 487.5ZM347.67 494.26C356.64 492.52 384.66 509.13 392.49 515C396.5 518 398.15 523.45 395.41 527.91C392.94 531.94 387.38 535.29 383.72 538.21C365.86 552.45 358.7 544 341.27 534.23C335.82 531.17 324.52 527.52 322.49 521.02C319.47 511.33 339 495.95 347.67 494.26ZM452.58 494.21C461.07 492.66 490.68 509.64 497.93 515.55C501.82 518.73 502.94 524.31 500.03 528.51C497.27 532.5 492.07 535.83 488.31 538.86C470.9 552.91 461.66 543.18 444.89 533.58C439.34 530.4 428.89 527.34 427.26 520.29C425.15 511.21 444.36 495.71 452.58 494.21ZM387.87 522.5C382.37 518.15 356.64 502.18 350.53 502.37C344.54 502.54 334.6 513.05 331.06 517.5C334.02 521.41 363.97 538.49 368.5 538.07C373.68 537.59 385.56 526.82 387.87 522.5ZM492.74 522.5C487.44 518.66 460.01 501.77 454.82 502.46C449.06 503.23 439.65 513.17 436.03 517.5C438.84 521.9 446.63 524.58 451.28 527.24C464.63 534.91 470.28 542.7 483.77 531.33C486.77 528.8 491.18 525.95 492.74 522.5ZM304.68 530.26C315.26 527.49 340.66 543.29 349.92 549.55C354.66 552.75 357.1 558.82 353.41 563.88C350.62 567.7 345.77 570.6 342.14 573.6C324.28 588.36 316.48 579.19 299.02 569.48C293.92 566.65 283.43 563.24 281.32 557.23C277.89 547.48 296.01 532.53 304.68 530.26ZM433.57 582.12C432.19 582.12 430.81 582.13 429.43 582.13C423.07 581.21 388.31 562.6 386.42 557.14C383.14 547.68 401 533.34 409.11 530.59C421.44 526.4 439.95 541.27 450.37 547.12C454.87 549.64 460.77 552.44 460.74 558.49C460.71 565.67 450.26 571.78 445.23 575.69C441.46 578.62 438.41 581.36 433.57 582.12ZM516.61 530.29C526.21 528.72 553.39 544.76 561.39 551.05C565.51 554.28 566.89 559.91 563.88 564.33C560.99 568.55 555.66 572 551.68 575.14C534.69 588.58 525.05 578.95 508.85 569.63C503.66 566.65 493.63 563.16 491.52 557C488.2 547.3 507.83 531.72 516.61 530.29ZM346.15 558.5C342.99 554.21 313.61 537.51 308.51 538.06C302.88 538.68 292.31 548.83 289.61 553.5C293.17 557.53 322.7 574.55 327.45 573.84C333.26 572.98 342.16 562.64 346.15 558.5ZM451.77 558.5C448.15 554.31 418.41 537.32 413.5 537.86C408.25 538.45 397.42 549.08 394.92 553.5C397.61 557.52 428.79 574.7 433.34 573.77C438.83 572.64 448.13 562.69 451.77 558.5ZM556.91 558.5C551.35 554.22 525.63 538.28 519.51 538.3C513.58 538.32 503.3 549.01 500.06 553.5C503.03 557.56 533.9 574.82 538.41 573.87C543.98 572.69 553.5 562.85 556.91 558.5ZM795.5 546.14C784.9 553.26 759.54 580.22 747.5 578.29C731.59 575.75 732.66 543.51 714.8 550.54C702.03 555.58 676.42 583.58 664 593.53C633.42 618.04 605.21 645.59 575.03 670.58C561.92 681.43 535.36 700.7 527.37 714.78C519.78 728.14 522.65 757.81 522.46 773.5C526.14 771.19 529.82 768.87 533.5 766.56C534.83 764.51 536.17 762.46 537.5 760.41C538.74 761.39 536.66 761.82 537.94 762.42C539.36 763.09 554.57 752.91 556.96 751.38C574.55 740.05 591.84 728.18 609.43 716.85C648.09 691.97 686.68 666.85 725 641.41C735.18 634.65 746.05 628.64 755.81 621.28C777.31 605.08 795.44 573.33 795.5 546.14ZM264.62 565.2C272.47 563.68 304.47 580.9 310.51 586.98C313.87 590.37 314.05 595.96 311.22 599.73C308.47 603.41 304.05 606.07 300.58 609.06C282.99 624.25 274.65 614.6 257.39 605.07C252 602.1 241.55 598.52 239.3 592.24C235.71 582.28 255.77 566.91 264.62 565.2ZM370.67 565.29C379.13 563.94 407.19 580.36 414.55 585.96C418.59 589.03 420.4 594.48 417.45 598.96C414.82 602.96 409.98 605.83 406.41 608.93C388.82 624.16 381.41 615.44 363.8 605.67C357.92 602.41 346.1 598.51 344.42 591.19C342.16 581.37 362.04 566.66 370.67 565.29ZM477.72 565.45C487.31 564.89 506.62 579.13 515.6 583.92C519.62 586.05 524.26 588.5 524.59 593.65C525.1 601.49 508.3 614.4 501.74 617.26C489.57 622.58 471.71 607.73 461.5 601.99C457.65 599.83 452.14 597.61 450.24 593.27C445.59 582.62 468.47 565.99 477.72 565.45ZM304.01 593.5C300.75 589.59 271.43 572.91 266.76 573.42C261.21 574.03 250.68 583.97 247.89 588.5C251.24 592.47 280.78 609.54 285.46 608.91C290.6 608.21 301.68 597.84 304.01 593.5ZM409.87 593.5C405.33 589.31 378.01 573.3 372.5 573.36C366.92 573.42 356.22 584.22 353.09 588.5C355.92 592.7 385.44 609.45 390.5 609.11C396.02 608.74 407.56 598.2 409.87 593.5ZM515.31 594.5C512.76 591.25 481.67 573.19 478.15 573.57C473.7 574.04 470.65 578.25 467.38 580.92C463.93 583.73 459.58 586.03 459.03 590.5C466.43 594.65 489.01 610.22 496.42 609.49C502.17 608.92 511.86 598.85 515.31 594.5ZM329.77 600.45C339.36 599.44 359.11 613.73 367.99 618.51C372.19 620.77 376.95 623.09 377.29 628.5C377.81 636.95 362.09 648.13 355.28 651.79C343.24 658.27 323.61 641.86 313.34 636.17C308.8 633.65 302.97 631.14 302.44 625.24C301.77 617.71 311.06 612.74 315.91 608.44C319.92 604.89 324.2 601.03 329.77 600.45ZM433.58 601.21C444.28 599.18 465.48 614.93 475.34 620.16C479.89 622.57 483.65 625.73 482.9 631.46C481.95 638.72 462.95 651.48 457.09 656.56C448.27 664.22 428.7 684.86 418.21 687.63C407.95 690.33 375.99 673.88 368.51 665.99C361.32 658.4 371.2 651.54 376.51 647.01C389.1 636.27 402.03 625.9 414.5 615.01C419.73 610.45 426.52 602.55 433.58 601.21ZM368.48 629.5C365.54 625.41 335.39 608.58 330.5 608.92C325.15 609.31 313.58 620.06 311.01 624.5C315.99 628.52 344.32 645.73 349.45 644.91C355.05 644 364.6 633.57 368.48 629.5ZM474.06 630.5C471.27 625.65 462.51 622.72 457.57 619.95C452.39 617.06 442.66 609.15 436.64 609.45C430.75 609.73 423.65 618.33 419.45 621.98C405.34 634.25 387.71 645.25 375.64 659.5C379.96 664.96 408.88 680.71 415.47 679.06C422.06 677.4 429 668.89 434.08 664.55C447.27 653.23 461.85 642.9 474.06 630.5ZM387.5 780.13C380.28 783.64 353.2 765.57 345.36 761.17C319.12 746.44 292.85 731.74 266.86 716.61C252.79 708.42 237.55 701.57 224.06 692.44C217.19 687.78 214.16 662.56 220.1 657.5C228.57 656.55 253.22 673.89 262.03 678.47C289.77 692.9 317.05 708.76 344.13 724.41C357.63 732.21 375.08 738.37 386.87 748.6C392.88 753.82 391.74 774.12 387.5 780.13ZM254.82 700.01C255.87 700.64 256.93 701.28 257.99 701.91C297.22 723.96 336.45 746.02 375.67 768.07C377.28 769.19 378.89 770.31 380.5 771.42C380.68 768.62 380.86 765.81 381.03 763C380.66 757.94 352.64 744.3 346.6 740.92C309.92 720.35 273.3 699.64 236.5 679.3C233.1 680.7 229.7 682.1 226.3 683.5C235.8 689 245.31 694.5 254.82 700.01ZM423.5 733.56C430.21 735.68 428.09 743.6 428.1 749.5C428.14 763.84 428.66 778.16 428.79 792.5C428.84 798.16 430.39 805.39 423.5 806.9C418.2 804.02 419.71 797.82 419.59 792.5C419.27 778.17 419.21 763.84 419.02 749.5C418.94 743.58 416.87 735.91 423.5 733.56Z" fill="#174233" fill-rule="evenodd" stroke="#174233" stroke-width="0.25" stroke-linejoin="round"/>
<path d="M500.6 766C500.65 766.83 500.71 767.67 500.76 768.5C503.34 768.98 505.92 769.47 508.5 769.95C508.74 769.63 508.99 769.32 509.23 769C509.14 772.83 509.05 776.67 508.96 780.5C504.49 781.23 500.12 778.84 495.66 780.14C491.18 781.45 486.78 785.89 482.94 788.46C464.41 800.81 447.72 814.64 424.5 815.22C401.62 815.8 383.49 801.68 364.4 791.06C330.86 772.4 297.81 752.89 264.35 734.12C252.52 727.49 226.34 715.7 217.68 707.04C217.14 706.04 216.6 705.04 216.05 704.04C209.33 684.29 209.59 643.32 212.09 622.01C227.25 627.29 241.46 638.31 255.58 645.97C287.86 663.49 319.8 681.69 351.86 699.62C374.59 712.33 395.98 728.49 423.47 723.88C451.45 719.19 487.8 679.88 509.64 661.12C570.35 608.93 629.58 554.89 690.8 503.31C710.63 486.61 729.36 468.26 749.89 452.44C759.16 445.3 769.26 436.61 781.5 435.99C788.22 442.72 789.54 453.53 791.22 462.44C795.45 484.97 799.56 511.27 796.5 534.16C786.97 542.52 761.98 564.96 750.5 567.06C745.08 560.81 742.81 552.11 738.41 545.12C731.64 534.36 713.34 522.5 700.5 523.13C681.67 524.05 652.52 557.09 637.83 569.37C605.58 596.33 574.21 624.45 542.38 651.92C527.51 664.76 508.05 677.13 497.56 694.04C487.27 710.63 487.95 727.59 487.92 746.5C487.91 752.83 486.19 761.87 489.18 767.5C492.9 768.72 498.16 769.58 500.6 766ZM795.5 546.14C795.44 573.33 777.31 605.08 755.81 621.28C746.05 628.64 735.18 634.65 725 641.41C686.68 666.85 648.09 691.97 609.43 716.85C591.84 728.18 574.55 740.05 556.96 751.38C554.57 752.91 539.36 763.09 537.94 762.42C536.66 761.82 538.74 761.39 537.5 760.41C536.17 762.46 534.83 764.51 533.5 766.56C529.82 768.87 526.14 771.19 522.46 773.5C522.65 757.81 519.78 728.14 527.37 714.78C535.36 700.7 561.92 681.43 575.03 670.58C605.21 645.59 633.42 618.04 664 593.53C676.42 583.58 702.03 555.58 714.8 550.54C732.66 543.51 731.59 575.75 747.5 578.29C759.54 580.22 784.9 553.26 795.5 546.14ZM387.5 780.13C391.74 774.12 392.88 753.82 386.87 748.6C375.08 738.37 357.63 732.21 344.13 724.41C317.05 708.76 289.77 692.9 262.03 678.47C253.22 673.89 228.57 656.55 220.1 657.5C214.16 662.56 217.19 687.78 224.06 692.44C237.55 701.57 252.79 708.42 266.86 716.61C292.85 731.74 319.12 746.44 345.36 761.17C353.2 765.57 380.28 783.64 387.5 780.13ZM423.5 733.56C416.87 735.91 418.94 743.58 419.02 749.5C419.21 763.84 419.27 778.17 419.59 792.5C419.71 797.82 418.2 804.02 423.5 806.9C430.39 805.39 428.84 798.16 428.79 792.5C428.66 778.16 428.14 763.84 428.1 749.5C428.09 743.6 430.21 735.68 423.5 733.56Z" fill="#248054" fill-rule="evenodd" stroke="#248054" stroke-width="0.25" stroke-linejoin="round"/>
<path d="M230.04 563.18C230.22 563.62 230.4 564.06 230.58 564.5C232.49 564.17 234.39 563.83 236.3 563.5C235.7 562.67 235.1 561.83 234.5 561C233.32 561.34 232.14 561.69 230.96 562.03C243.07 551.7 255.17 541.37 267.27 531.04C266.68 533.41 266.09 535.78 265.5 538.16C267.21 538.6 268.92 539.05 270.63 539.5C272.2 536.07 275.33 534.94 270 533.5C272.8 533.17 275.6 532.83 278.4 532.5C275.58 531.32 272.76 530.14 269.93 528.96C298 505.05 326.07 481.13 354.15 457.21C353.93 459.79 353.72 462.36 353.5 464.94C354.33 463.12 355.17 461.31 356 459.5C356.5 461.43 357 463.37 357.5 465.3C357.94 461.59 356.56 460.73 360 460.5C359.17 459.67 358.33 458.83 357.5 458C359.57 457.43 362.84 459.2 364.19 456.5C364.66 455.55 361.65 453.19 361.5 457.31C360.27 456.23 359.04 455.15 357.81 454.07C380.23 435.03 402.66 416 425.08 396.96C424.43 397.81 423.77 398.65 423.12 399.5C424.77 399.5 426.43 399.5 428.08 399.5C428.68 399.17 429.27 398.83 429.87 398.5C428.59 397.72 427.31 396.93 426.04 396.15C434.72 388.76 443.4 381.37 452.08 373.98C452.56 374.91 453.03 375.84 453.5 376.77C454.23 376.68 454.96 376.59 455.69 376.5C455.62 375.33 455.56 374.17 455.5 373C457 373.5 458.5 374 460 374.5C459.5 375.33 459 376.17 458.5 377C462.55 378.82 463.19 373.35 466.97 372.5C465.48 371.67 463.99 370.83 462.5 370C462 371.17 461.5 372.33 461 373.5C459.94 372.02 458.88 370.55 457.82 369.07C459.45 367.69 461.08 366.31 462.7 364.92C462.47 365.78 462.23 366.64 462 367.5C463.17 368.38 464.33 369.26 465.5 370.13C466.94 367.02 466.86 366.2 464.24 364.05C467.36 358.07 476.71 353 481.91 348.42C500.45 332.05 523.38 309.2 550.61 314.5C549.58 320.17 548.55 325.83 547.52 331.5C539.61 331.95 534.46 334.17 529.07 340.5C528.74 350.95 560.41 363.47 569.82 368.66C599.34 384.94 629.35 400.34 658.88 416.61C672.28 423.99 691.6 437.68 705.92 441.53C713.09 443.46 727.6 432.74 724.74 424.73C723.13 420.23 715.71 418.91 712.5 415.78C713.83 409.17 715.17 402.56 716.5 395.95C733.99 405.8 751.49 415.65 768.98 425.5C738.43 437.04 709.22 470.64 684.39 491.92C626.46 541.58 569.37 592.21 511.64 642.09C493.94 657.39 476.54 673.04 458.66 688.11C447.4 697.59 437.12 707.46 422.15 710.56C400.69 714.99 383.17 702.11 365.32 692.19C329.33 672.18 293.39 652.09 257.44 632.02C244.38 624.73 219.8 614.99 210.22 604.28C198.57 591.24 217.12 567.83 230.04 563.18ZM532.16 320C530.78 319.83 529.39 319.67 528 319.5C529.39 321.2 530.78 322.91 532.16 324.61C532.16 323.08 532.16 321.54 532.16 320ZM537.5 318.13C538.6 319.25 539.7 320.38 540.8 321.5C539.7 320.38 538.6 319.25 537.5 318.13ZM496.5 341C494.96 341.83 493.41 342.67 491.87 343.5C493.08 344.61 494.29 345.72 495.5 346.83C498.13 344.64 499.73 345.32 500 341.5C498.83 341.33 497.67 341.17 496.5 341ZM500.7 361.34C492.35 362.81 483.65 373.54 477.43 378.94C461.4 392.86 445.13 406.71 428.64 420.08C422.64 424.94 408.69 433.37 411.21 442.3C412.9 448.28 423.99 451.81 428.92 454.56C446.9 464.59 464.9 474.59 482.88 484.62C507.05 498.1 531.24 511.56 555.42 525.04C564.78 530.26 577.7 540.97 588.5 541.95C598.17 542.82 607.38 531.49 613.99 525.48C629.54 511.35 645.71 497.82 661.64 484.11C667.51 479.06 676.44 473.7 680.69 467.23C688.44 455.41 653.28 441.14 644.93 436.56C610.29 417.57 575.84 398.16 541.04 379.45C530.33 373.7 513.24 359.12 500.7 361.34ZM456.5 377.04C456.5 378.3 456.5 379.56 456.5 380.82C456.5 379.56 456.5 378.3 456.5 377.04ZM425.5 401.7C424.5 403.67 423.5 405.64 422.5 407.61C424.1 407.61 425.7 407.61 427.3 407.61C426.7 405.64 426.1 403.67 425.5 401.7ZM418.43 407C418.43 408.4 418.43 409.8 418.43 411.2C419.29 410.3 420.14 409.4 421 408.5C420.14 408 419.29 407.5 418.43 407ZM398.5 430.76C398.49 428.24 399.33 427.24 396 427.5C396.83 428.59 397.67 429.68 398.5 430.76ZM392.5 429C391 430.5 389.5 432 388 433.5C389.33 433.83 390.67 434.17 392 434.5C393.17 433.67 394.33 432.83 395.5 432C394.5 431 393.5 430 392.5 429ZM387 434.5C386 434.5 385 434.5 384 434.5C384.5 435.33 385 436.17 385.5 437C386 436.17 386.5 435.33 387 434.5ZM392.47 458.51C383.46 458.25 359.46 476.15 364.15 486.31C366.2 490.75 372.34 492.92 376.35 495.12C386.43 500.65 401.91 514.28 413.98 510.47C421.46 508.11 440.27 492.08 436.88 483.64C434.45 477.57 399.32 458.71 392.47 458.51ZM330.5 485.16C329.31 486.61 328.13 488.05 326.94 489.5C330.27 489.26 331.55 488.7 330.5 485.16ZM347.67 494.26C339 495.95 319.47 511.33 322.49 521.02C324.52 527.52 335.82 531.17 341.27 534.23C358.7 544 365.86 552.45 383.72 538.21C387.38 535.29 392.94 531.94 395.41 527.91C398.15 523.45 396.5 518 392.49 515C384.66 509.13 356.64 492.52 347.67 494.26ZM452.58 494.21C444.36 495.71 425.15 511.21 427.26 520.29C428.89 527.34 439.34 530.4 444.89 533.58C461.66 543.18 470.9 552.91 488.31 538.86C492.07 535.83 497.27 532.5 500.03 528.51C502.94 524.31 501.82 518.73 497.93 515.55C490.68 509.64 461.07 492.66 452.58 494.21ZM304.68 530.26C296.01 532.53 277.89 547.48 281.32 557.23C283.43 563.24 293.92 566.65 299.02 569.48C316.48 579.19 324.28 588.36 342.14 573.6C345.77 570.6 350.62 567.7 353.41 563.88C357.1 558.82 354.66 552.75 349.92 549.55C340.66 543.29 315.26 527.49 304.68 530.26ZM429.43 582.13C429.46 582.22 429.48 582.31 429.5 582.4C430.83 582.4 432.17 582.4 433.5 582.4C433.52 582.31 433.54 582.21 433.57 582.12C438.41 581.36 441.46 578.62 445.23 575.69C450.26 571.78 460.71 565.67 460.74 558.49C460.77 552.44 454.87 549.64 450.37 547.12C439.95 541.27 421.44 526.4 409.11 530.59C401 533.34 383.14 547.68 386.42 557.14C388.31 562.6 423.07 581.21 429.43 582.13ZM516.61 530.29C507.83 531.72 488.2 547.3 491.52 557C493.63 563.16 503.66 566.65 508.85 569.63C525.05 578.95 534.69 588.58 551.68 575.14C555.66 572 560.99 568.55 563.88 564.33C566.89 559.91 565.51 554.28 561.39 551.05C553.39 544.76 526.21 528.72 516.61 530.29ZM509.23 769C508.99 769.32 508.74 769.63 508.5 769.95C505.92 769.47 503.34 768.98 500.76 768.5C500.71 767.67 500.65 766.83 500.6 766C501.95 746.83 497.41 725.86 505.21 707.7C512.92 689.75 532.69 676.99 547.36 664.9C578.84 638.97 609.75 611.86 640.02 584.52C655.49 570.54 671.31 556.06 687.7 543.17C693.36 538.72 702.19 532.48 708.8 538.5C691.27 548.1 676.48 564.94 661.36 577.89C630.67 604.17 600.69 631.27 569.9 657.43C552.32 672.37 524.33 690.99 514.25 711.73C505.83 729.05 510.17 750.4 509.23 769ZM246.5 556.58C245.51 552.92 234.34 555.98 238.5 561C241.31 560.39 241.3 559.77 240.5 557C242.16 558.9 245.55 557.94 246.5 556.58ZM242.82 563.5C241.55 563.17 240.27 562.83 239 562.5C239.5 563.52 240 564.55 240.5 565.57C241.27 564.88 242.05 564.19 242.82 563.5ZM238.5 567.52C237.53 566.51 236.55 565.51 235.58 564.5C236.55 565.51 237.53 566.51 238.5 567.52ZM264.62 565.2C255.77 566.91 235.71 582.28 239.3 592.24C241.55 598.52 252 602.1 257.39 605.07C274.65 614.6 282.99 624.25 300.58 609.06C304.05 606.07 308.47 603.41 311.22 599.73C314.05 595.96 313.87 590.37 310.51 586.98C304.47 580.9 272.47 563.68 264.62 565.2ZM370.67 565.29C362.04 566.66 342.16 581.37 344.42 591.19C346.1 598.51 357.92 602.41 363.8 605.67C381.41 615.44 388.82 624.16 406.41 608.93C409.98 605.83 414.82 602.96 417.45 598.96C420.4 594.48 418.59 589.03 414.55 585.96C407.19 580.36 379.13 563.94 370.67 565.29ZM477.72 565.45C468.47 565.99 445.59 582.62 450.24 593.27C452.14 597.61 457.65 599.83 461.5 601.99C471.71 607.73 489.57 622.58 501.74 617.26C508.3 614.4 525.1 601.49 524.59 593.65C524.26 588.5 519.62 586.05 515.6 583.92C506.62 579.13 487.31 564.89 477.72 565.45ZM215.5 583C214.29 584.17 213.08 585.33 211.87 586.5C213.08 585.33 214.29 584.17 215.5 583ZM217 587.5C216.17 587.28 215.33 587.05 214.5 586.83C214.4 588.05 214.31 589.28 214.21 590.5C214.64 590.76 215.07 591.02 215.5 591.28C216 590.02 216.5 588.76 217 587.5ZM329.77 600.45C324.2 601.03 319.92 604.89 315.91 608.44C311.06 612.74 301.77 617.71 302.44 625.24C302.97 631.14 308.8 633.65 313.34 636.17C323.61 641.86 343.24 658.27 355.28 651.79C362.09 648.13 377.81 636.95 377.29 628.5C376.95 623.09 372.19 620.77 367.99 618.51C359.11 613.73 339.36 599.44 329.77 600.45ZM433.58 601.21C426.52 602.55 419.73 610.45 414.5 615.01C402.03 625.9 389.1 636.27 376.51 647.01C371.2 651.54 361.32 658.4 368.51 665.99C375.99 673.88 407.95 690.33 418.21 687.63C428.7 684.86 448.27 664.22 457.09 656.56C462.95 651.48 481.95 638.72 482.9 631.46C483.65 625.73 479.89 622.57 475.34 620.16C465.48 614.93 444.28 599.18 433.58 601.21ZM212.09 622.01C209.59 643.32 209.33 684.29 216.05 704.04C215.69 704.42 215.33 704.8 214.98 705.18C204.65 696.5 204.45 682.91 203.96 670.5C203.24 652.5 200.86 632.93 203.5 615.06C206.36 617.38 209.23 619.69 212.09 622.01Z" fill="#84bf92" fill-rule="evenodd" stroke="#84bf92" stroke-width="0.25" stroke-linejoin="round"/>
<path d="M782.81 284.5C738.57 297.86 713.87 346.43 703.87 388.31C701.13 399.77 700.48 411.39 698.5 422.86C652 397.74 605.51 372.62 559.01 347.5C558.81 304.37 588.16 230.55 637.48 224.06C666.73 220.22 715.4 251.84 742.79 264.67C755.26 270.5 772.22 275.78 782.81 284.5ZM532.16 320C532.16 321.54 532.16 323.08 532.16 324.61C530.78 322.91 529.39 321.2 528 319.5C529.39 319.67 530.78 319.83 532.16 320ZM537.5 318.13C538.6 319.25 539.7 320.38 540.8 321.5C539.7 320.38 538.6 319.25 537.5 318.13ZM496.5 341C497.67 341.17 498.83 341.33 500 341.5C499.73 345.32 498.13 344.64 495.5 346.83C494.29 345.72 493.08 344.61 491.87 343.5C493.41 342.67 494.96 341.83 496.5 341ZM846.5 348.98C861.67 355.82 876.84 362.66 892.01 369.5C891.04 385.08 877.31 422.53 854.78 411.68C839.96 404.54 844.04 378.28 844.94 365.5C845.32 360.18 844.16 353.74 846.5 348.98ZM464.24 364.05C466.86 366.2 466.94 367.02 465.5 370.13C464.33 369.26 463.17 368.38 462 367.5C462.23 366.64 462.47 365.78 462.7 364.92C463.21 364.63 463.73 364.34 464.24 364.05ZM457.82 369.07C458.88 370.55 459.94 372.02 461 373.5C461.5 372.33 462 371.17 462.5 370C463.99 370.83 465.48 371.67 466.97 372.5C463.19 373.35 462.55 378.82 458.5 377C459 376.17 459.5 375.33 460 374.5C458.5 374 457 373.5 455.5 373C455.56 374.17 455.62 375.33 455.69 376.5C454.96 376.59 454.23 376.68 453.5 376.77C453.03 375.84 452.56 374.91 452.08 373.98C454 372.35 455.91 370.71 457.82 369.07ZM456.5 377.04C456.5 378.3 456.5 379.56 456.5 380.82C456.5 379.56 456.5 378.3 456.5 377.04ZM426.04 396.15C427.31 396.93 428.59 397.72 429.87 398.5C429.27 398.83 428.68 399.17 428.08 399.5C426.43 399.5 424.77 399.5 423.12 399.5C423.77 398.65 424.43 397.81 425.08 396.96C425.4 396.69 425.72 396.42 426.04 396.15ZM425.5 401.7C426.1 403.67 426.7 405.64 427.3 407.61C425.7 407.61 424.1 407.61 422.5 407.61C423.5 405.64 424.5 403.67 425.5 401.7ZM418.43 407C419.29 407.5 420.14 408 421 408.5C420.14 409.4 419.29 410.3 418.43 411.2C418.43 409.8 418.43 408.4 418.43 407ZM398.5 430.76C397.67 429.68 396.83 428.59 396 427.5C399.33 427.24 398.49 428.24 398.5 430.76ZM392.5 429C393.5 430 394.5 431 395.5 432C394.33 432.83 393.17 433.67 392 434.5C390.67 434.17 389.33 433.83 388 433.5C389.5 432 391 430.5 392.5 429ZM387 434.5C386.5 435.33 386 436.17 385.5 437C385 436.17 384.5 435.33 384 434.5C385 434.5 386 434.5 387 434.5ZM357.81 454.07C359.04 455.15 360.27 456.23 361.5 457.31C361.65 453.19 364.66 455.55 364.19 456.5C362.84 459.2 359.57 457.43 357.5 458C358.33 458.83 359.17 459.67 360 460.5C356.56 460.73 357.94 461.59 357.5 465.3C357 463.37 356.5 461.43 356 459.5C355.17 461.31 354.33 463.12 353.5 464.94C353.72 462.36 353.93 459.79 354.15 457.21C355.37 456.16 356.59 455.12 357.81 454.07ZM429.01 487.5C424.72 491.89 417 500.99 411.01 502.62C406.12 503.95 376.55 486.67 372.05 482.5C374.58 478.29 385.48 467.81 390.52 467C394.96 466.29 426.51 483.56 429.01 487.5ZM330.5 485.16C331.55 488.7 330.27 489.26 326.94 489.5C328.13 488.05 329.31 486.61 330.5 485.16ZM387.87 522.5C385.56 526.82 373.68 537.59 368.5 538.07C363.97 538.49 334.02 521.41 331.06 517.5C334.6 513.05 344.54 502.54 350.53 502.37C356.64 502.18 382.37 518.15 387.87 522.5ZM492.74 522.5C491.18 525.95 486.77 528.8 483.77 531.33C470.28 542.7 464.63 534.91 451.28 527.24C446.63 524.58 438.84 521.9 436.03 517.5C439.65 513.17 449.06 503.23 454.82 502.46C460.01 501.77 487.44 518.66 492.74 522.5ZM269.93 528.96C272.76 530.14 275.58 531.32 278.4 532.5C275.6 532.83 272.8 533.17 270 533.5C275.33 534.94 272.2 536.07 270.63 539.5C268.92 539.05 267.21 538.6 265.5 538.16C266.09 535.78 266.68 533.41 267.27 531.04C268.16 530.35 269.05 529.66 269.93 528.96ZM346.15 558.5C342.16 562.64 333.26 572.98 327.45 573.84C322.7 574.55 293.17 557.53 289.61 553.5C292.31 548.83 302.88 538.68 308.51 538.06C313.61 537.51 342.99 554.21 346.15 558.5ZM451.77 558.5C448.13 562.69 438.83 572.64 433.34 573.77C428.79 574.7 397.61 557.52 394.92 553.5C397.42 549.08 408.25 538.45 413.5 537.86C418.41 537.32 448.15 554.31 451.77 558.5ZM246.5 556.58C245.55 557.94 242.16 558.9 240.5 557C241.3 559.77 241.31 560.39 238.5 561C234.34 555.98 245.51 552.92 246.5 556.58ZM230.04 563.18C230.35 562.8 230.66 562.41 230.96 562.03C232.14 561.69 233.32 561.34 234.5 561C235.1 561.83 235.7 562.67 236.3 563.5C234.39 563.83 232.49 564.17 230.58 564.5C230.4 564.06 230.22 563.62 230.04 563.18ZM242.82 563.5C242.05 564.19 241.27 564.88 240.5 565.57C240 564.55 239.5 563.52 239 562.5C240.27 562.83 241.55 563.17 242.82 563.5ZM238.5 567.52C237.53 566.51 236.55 565.51 235.58 564.5C236.55 565.51 237.53 566.51 238.5 567.52ZM409.87 593.5C407.56 598.2 396.02 608.74 390.5 609.11C385.44 609.45 355.92 592.7 353.09 588.5C356.22 584.22 366.92 573.42 372.5 573.36C378.01 573.3 405.33 589.31 409.87 593.5ZM215.5 583C214.29 584.17 213.08 585.33 211.87 586.5C213.08 585.33 214.29 584.17 215.5 583ZM217 587.5C216.5 588.76 216 590.02 215.5 591.28C215.07 591.02 214.64 590.76 214.21 590.5C214.31 589.28 214.4 588.05 214.5 586.83C215.33 587.05 216.17 587.28 217 587.5ZM368.48 629.5C364.6 633.57 355.05 644 349.45 644.91C344.32 645.73 315.99 628.52 311.01 624.5C313.58 620.06 325.15 609.31 330.5 608.92C335.39 608.58 365.54 625.41 368.48 629.5Z" fill="#e9eae5" fill-rule="evenodd" stroke="#e9eae5" stroke-width="0.25" stroke-linejoin="round"/>
<path d="M832.5 402.72C798.65 385.65 764.8 368.57 730.94 351.5C742.8 325.63 767.61 295.8 798.5 295.95C806.59 295.98 814.92 298.89 820.39 305.14C836.88 324.01 831.78 351.78 831.12 374.5C830.85 383.67 833.63 393.85 832.5 402.72ZM503.5 374.19C557.53 403.96 611.56 433.73 665.6 463.5C640.23 485.27 614.87 507.04 589.5 528.81C535.72 498.71 481.94 468.6 428.15 438.5C453.27 417.06 478.38 395.63 503.5 374.19ZM381.03 763C380.52 763.33 380.01 763.67 379.5 764C378.83 763.67 378.17 763.33 377.5 763C376.89 764.69 376.28 766.38 375.67 768.07C336.45 746.02 297.22 723.96 257.99 701.91C258 701.11 258 700.3 258 699.5C257.17 699 256.33 698.5 255.5 698C255.27 698.67 255.04 699.34 254.82 700.01C245.31 694.5 235.8 689 226.3 683.5C229.7 682.1 233.1 680.7 236.5 679.3C273.3 699.64 309.92 720.35 346.6 740.92C352.64 744.3 380.66 757.94 381.03 763ZM251.5 693C251 693.83 250.5 694.67 250 695.5C251.17 696.33 252.33 697.17 253.5 698C252.83 696.33 252.17 694.67 251.5 693Z" fill="#b3bdba" fill-rule="evenodd" stroke="#b3bdba" stroke-width="0.25" stroke-linejoin="round"/>
<path d="M556.91 558.5C553.5 562.85 543.98 572.69 538.41 573.87C533.9 574.82 503.03 557.56 500.06 553.5C503.3 549.01 513.58 538.32 519.51 538.3C525.63 538.28 551.35 554.22 556.91 558.5ZM304.01 593.5C301.68 597.84 290.6 608.21 285.46 608.91C280.78 609.54 251.24 592.47 247.89 588.5C250.68 583.97 261.21 574.03 266.76 573.42C271.43 572.91 300.75 589.59 304.01 593.5ZM515.31 594.5C511.86 598.85 502.17 608.92 496.42 609.49C489.01 610.22 466.43 594.65 459.03 590.5C459.58 586.03 463.93 583.73 467.38 580.92C470.65 578.25 473.7 574.04 478.15 573.57C481.67 573.19 512.76 591.25 515.31 594.5ZM429.43 582.13C430.81 582.13 432.19 582.12 433.57 582.12C433.54 582.21 433.52 582.31 433.5 582.4C432.17 582.4 430.83 582.4 429.5 582.4C429.48 582.31 429.46 582.22 429.43 582.13ZM474.06 630.5C461.85 642.9 447.27 653.23 434.08 664.55C429 668.89 422.06 677.4 415.47 679.06C408.88 680.71 379.96 664.96 375.64 659.5C387.71 645.25 405.34 634.25 419.45 621.98C423.65 618.33 430.75 609.73 436.64 609.45C442.66 609.15 452.39 617.06 457.57 619.95C462.51 622.72 471.27 625.65 474.06 630.5ZM216.05 704.04C216.6 705.04 217.14 706.04 217.68 707.04C216.78 706.42 215.88 705.8 214.98 705.18C215.33 704.8 215.69 704.42 216.05 704.04Z" fill="#509d6f" fill-rule="evenodd" stroke="#509d6f" stroke-width="0.25" stroke-linejoin="round"/>
<path d="M190.61 609C190.61 623.67 190.61 638.33 190.61 653C190.61 638.33 190.61 623.67 190.61 609ZM251.5 693C252.17 694.67 252.83 696.33 253.5 698C252.33 697.17 251.17 696.33 250 695.5C250.5 694.67 251 693.83 251.5 693ZM257.99 701.91C256.93 701.28 255.87 700.64 254.82 700.01C255.04 699.34 255.27 698.67 255.5 698C256.33 698.5 257.17 699 258 699.5C258 700.3 258 701.11 257.99 701.91ZM381.03 763C380.86 765.81 380.68 768.62 380.5 771.42C378.89 770.31 377.28 769.19 375.67 768.07C376.28 766.38 376.89 764.69 377.5 763C378.17 763.33 378.83 763.67 379.5 764C380.01 763.67 380.52 763.33 381.03 763Z" fill="#848e8e" fill-rule="evenodd" stroke="#848e8e" stroke-width="0.25" stroke-linejoin="round"/>
</svg>